<svg xmlns="http://www.w3.org/2000/svg" width="300" height="300" fill="none" viewBox="0 0 300 300">
  <path fill="#7F5AF0" fill-rule="evenodd" d="M80.2 123.987c-.38-.877-1.883-.34-1.568.546a194.388 194.388 0 019.558 39.787c.158 1.091 1.787.722 1.657-.345-1.2-9.827-5.527-30.473-9.647-39.988zm32.36 116.2c-3.02-.842-4.975-1.408-8.044-2.065a.87.87 0 00-1.005 1.259.87.87 0 00.521.416c2.648.916 6.747 1.439 7 2.031.1.237-6.181 22-7.254 23.676-.907 1.415-2.37.236-3.578-.277-1.349-.572-2.341-.8-3.694-1.36-1.274-.53-1.875 1.552-.6 2.075 1.522.624 2.7.883 4.225 1.492 2.55 1.016 4.4 1.936 5.524-1.388 2.723-8.04 5.077-16.491 7.581-24.629a1.009 1.009 0 00-.68-1.23h.004zm-56.053-23.03c14.945 7.711 31.087 12.676 47.128 17.948-3.789 6.191-11.428 23.716-11.428 38.789-17.814-4.583-78.918-31.48-84.707-46.435-5.789-14.955-.958-77.911 8.687-91.175 6.611-9.091 25.207-17.729 38.354-21.589 10.452 11.239 29.416 48.127 36.342 64.88-.112 14.147.023 28.327 1.1 42.437.08 1.041 1.575.815 1.578-.182.036-15.15-.414-30.314-.364-45.5.066-20.583 3.657-40.2 1.535-61.116a153.021 153.021 0 0126.462 7.2c0 8.019-1.046 88.253-1.192 111.234-18.631-1.006-43.354-9.766-60.261-17.851-7.832-3.745-13.581-6.673-12.855-16.047.924-11.942.81-23.988 2.529-35.836a.824.824 0 00-.858-.912.827.827 0 00-.775.671c-2.276 11.074-2.851 26.481-3.155 37.874-.205 7.677 5.175 12.147 11.877 15.605l.003.005zm38.318-32.722a.88.88 0 001.09 1.156.881.881 0 00.498-.411 172.473 172.473 0 009.7-22.315c2.32-6.372 4.251-9.488-1.113-14.84-2.308-2.305-2.829-2.915-.11-3.621a15.617 15.617 0 004.655-1.955c1.719-1.341 1.275-3.326.518-5.077a103.445 103.445 0 00-8.18-15.656c-.593-.9-1.832.023-1.351.929 1.737 3.277 7.672 13.577 8.225 16.771.372 2.16-4.282 3-6.062 3.658-3.736 1.369-1.783 3.741.247 5.691 5.233 5.029 3.849 6.494 1.592 12.756-2.842 7.891-6.208 15.3-9.706 22.914h-.003zm-43.709-60.688c.307-.943 1.8-.423 1.577.523-.782 3.307-2.31 9.746-1.969 13.1.169 1.664 1.4 2.334 2.767 2.825 2.352.848 4.773 1.52 7.15 2.289 5.647 1.827 4.213 4.4 3.857 9.316-.561 7.728-1.119 7.747 4.879 12.815 5.756 4.864 11.684 10.542 17.648 15 .958.716-.228 2.109-1.16 1.428-6.367-4.653-14.45-11.793-20.264-17.113-4.27-3.909-3.3-7.584-2.927-12.767.246-3.423 1.515-5.456-2.362-6.737-2.4-.791-4.825-1.492-7.209-2.322-1.669-.582-3.372-1.483-3.975-3.346-1.001-3.1 1.004-11.988 1.988-15.011z" clip-rule="evenodd"/>
  <path fill="#fff" fill-rule="evenodd" d="M63.51 61.867c.782.589 1.615-.385 1.943-1.011 2.507-4.789 4.2-11.886 3.107-17.243-.18-.883-1.681-.947-1.665.051.1 6.158-.143 10.5-3.074 16.113-3.037-2.694-8.374-2.709-9.182 1.75-.718 3.969 1.206 10.444 4.085 13.293a4.02 4.02 0 004.331 1.1c1.179 10.118 2.9 20.195 3.311 31.008a.864.864 0 00.883.695.864.864 0 00.826-.762C68.741 97.287 66 83.853 64.547 74.3c-.15-.992-1.068-1.387-1.736-.841-1.591 1.3-2.925-.534-3.711-1.851-1.323-2.216-3.049-7.256-2.206-9.862 1.029-3.179 4.869-1.193 6.616.121zM89.9 111.03c.155 1.879.444 13.315-1.137 13.776-1.794.523-7.635-4.946-10.917-5.642-1.55 1.224-9.488 7.316-11.447 5.874-2.4-1.764-3.053-12.9-2.909-15.412a1.04 1.04 0 011.405-.835 47.494 47.494 0 0112.6 5.767 41.039 41.039 0 007.336-4.2c1.879-1.355 4.719-3.605 5.074.673l-.005-.001zm-6.251-14.777c7.479 1.949 14.761.138 17.775-7.721 4.738-12.351.206-37.588-5.751-49.87-.487-1.005-1.884-.2-1.5.8 5.326 13.691 9.347 30.338 6.537 44.916-1.867 9.685-8.448 12.5-17.408 9.93-2.171-.623-4.3-1.472-6.351-2.238-.981-.366-1.375 1.113-.468 1.523a53.607 53.607 0 005.392 2.144c.43 3.313.133 10.185.241 11.965.06.987 1.529.94 1.7-.012.349-1.941.057-9.558-.168-11.432l.001-.005zm-1.978-70.137c-.97.037-.918 1.564.01 1.681 4.489.565 11.318 1.841 10.682 7.968a.8.8 0 001.579.2c1.418-6.683-6.7-10.07-12.271-9.853v.004zm5.185 10.742a.802.802 0 01-1.4.783 17.87 17.87 0 00-15.979-7.86c-4.707.18-15.954 3.049-16.863 8.571-.18 1.091-2.044.825-1.912-.26.8-6.569 12.543-9.837 18.027-10.218 6.929-.481 14.887 2.439 18.127 8.984zm-12.074 2.914c.789.506.064 1.885-.779 1.465-5.119-2.552-11.487-3.624-16.779-.855-6.294 3.292-4.886 10.092-1.531 15.033a.919.919 0 01-1.43 1.152c-4.254-5.034-4.9-13.5 1.219-17.364 5.6-3.539 13.839-2.935 19.3.569zm22.376 19.936c.868.621.424 1.279-.364 1.351a10.919 10.919 0 00-2.887.186c-.808.2-1.419-.636-.435-1.384a3.792 3.792 0 013.686-.153zm-12.877.738c1.692.427 1.756 1.859-.1 1.734a10.448 10.448 0 00-3.922.662c-.766.237-1.172-.68-.479-1.3a5.578 5.578 0 014.5-1.091l.001-.005zm13.172-6.673c.515.834-.146 1.513-.888.985-2.03-1.45-3.481-1.014-4.932.517a.862.862 0 01-1.348-1.044c1.257-2.6 5.72-2.807 7.168-.458zm-12.579.685c1.067.667-.044 2.3-1.1 1.617a5.017 5.017 0 00-6.912 1.479.83.83 0 01-1.37-.934c1.812-3.366 6.263-4.113 9.384-2.162h-.002zm12.7 25.808c1.861 1.5 1.358 2-.755 1.476a23.975 23.975 0 00-4.024-1 .826.826 0 01-.081-1.612 4.707 4.707 0 012.576-.162 7.566 7.566 0 012.284 1.3v-.002zm-7.71-.928c.657.3.887 1.126.266 1.529a26.684 26.684 0 01-3.81 1.383c-1.266.48-2.28.98-3.549 1.54-1.5.661-2.706.254-.954-1.075 1.2-.911 2.288-2.189 3.677-2.789 1.122-.485 3.409-1.034 4.374-.588h-.004zm.919-20.414a39.594 39.594 0 013.575 16.047c-.018 3.9-2.294 3.411-5.009 2.44a11.676 11.676 0 01-3.274-1.559.835.835 0 01.729-1.427c.962.29 1.853.8 2.792 1.162 1.655.632 2.945.883 2.93-.538A41.161 41.161 0 0089.271 59.4c-.396-.964 1.096-1.375 1.516-.476h-.004zm84 184.872c1.2-1.441 2.05.109 1.374.987-2.459 3.193-9.428 3.4-13.2 3.82-12.886 1.427-15.682 4.6-26.85 9.918a46.669 46.669 0 01-23.936 4.642c-3.138-.192-1.666-2.136.091-2.052 7.08.338 14.747-.591 24.909-5.71 10.035-5.055 13.759-7.476 25.185-8.761 3.366-.378 10.27-.254 12.427-2.844zm12.1-81.8c.241-9.81 8.925-19.7 20.343-19.7 13.186 0 20.432 11.177 20.547 18.333-13.232 1.125-33.975 1.527-40.89 1.367zm18.735-41.857c5.365-.487 9.651 2.172 9.81 8.524.159 6.352-4.423 9.246-8.041 9.246-3.618 0-9.569-2.492-9.971-8.04-.402-5.548 2.9-9.247 8.2-9.73h.002zm37.166-48.4a.927.927 0 00-.937 1.528c1.47 1.975 2.524 2.909 2.825 5.6.219 1.952 1.831 2.371 2.255-.032.443-2.51-1.75-6.332-4.143-7.094v-.002zm-8.54-1.626c4.014-.531 7.527 6.594 7.365 10.155-.125 2.767-1.891 3.478-2.421.164-.4-2.534-2-8.19-4.947-8.579a.88.88 0 010-1.74h.003zm.33 10.3c.035-5.285-3.8-12.212-9.892-10.682-.735.185-.928 1.554.008 1.681 5.527.751 6.463 4.773 7.235 9.48.637 3.876 2.624 3.415 2.649-.479zm-18.889-8.364c5.241-4.333 12.6 2.665 11.2 9.357-.306 1.466-1.913.608-2.022-.643-.287-3.313-2.5-9.3-8.312-7.273-.779.271-1.532-.89-.866-1.441zm77.731 85.272c-.244-19.3.781-39.469 0-58.516-.531-13-.866-20.626-15.428-22.427-8.693-1.075-19.874-.223-28.31-.169a.872.872 0 00-.841.87.882.882 0 00.829.88c8.827.439 19.023.166 27.075.651 12.842.773 14.669 7.493 14.691 21.516.029 19.225-.5 38.426-.324 57.676.181 19.865 1.755 41.938 1.179 61.546-.569 19.373-9.654 18.6-23.187 18.933-40.783 1.019-84.022.273-124.7.575-.933.007-.932 1.644 0 1.653 38.976.4 83.521 1.452 122.756.356 18.16-.508 26.209.221 27.533-20.9 1.093-17.448-1.144-52.041-1.278-62.639l.005-.005zM218.22 76.1c-22.78-.255-47.038-.947-69.745-.152-11.063.387-24.145 4.455-24.145 17.681-.023 35.486-.212 70.966-.156 106.459.012 8.237-.636 18.705.287 26.58.428 3.647 1.622 6.19 4.309 8.283.777.606 2.3-.406 1.271-1.433-2.494-2.481-3.2-5.035-3.422-8.214-.6-8.77-.022-19.023-.017-27.985.016-34.536-.1-69.076-.1-103.608 0-12.949 13.823-15.359 24.044-15.484 22.478-.276 45 .285 67.49.17 1.465-.008 1.675-2.28.181-2.3l.003.003zm39.38 117.686c.711-6.123-.327-12.777-.016-18.717-32.458.266-65.461.331-97.931.367-.224 5.254-.052 14.672-.289 19.571-.055 1.137-1.756 1.258-1.8.08-.214-5.825-.337-13.167-.094-19.065.1-2.465.415-2.471 2.68-2.522 29.98-.668 66.375-1.257 96.3-.5 2.458.063 2.849.15 3.193 2.8.438 3.382.759 16.568.092 19.265-.05.259-.187.494-.388.665a1.16 1.16 0 01-.72.273c-32.379.737-63.741 1.261-95.025.859-1.154-.014-1.018-1.752.1-1.763 31.321-.339 62.885-1.123 93.9-1.322l-.002.009zm-114.63 35.155c4.362-1.075 4.875 2 2.024 4.784a26.444 26.444 0 00-5.857 8.411c-.519 1.171-2.4.476-1.876-.7a30.768 30.768 0 016.613-9.416c1.354-1.353 1.244-1.452-.478-1.013-9.433 2.4-16.074 15.44-26.442 14.674-3.575-.263-2.947-1.836 0-1.9 9.935-.225 16.361-12.46 26.016-14.84z" clip-rule="evenodd"/>
  <path fill="#2CB67D" stroke="#2CB67D" d="M215.5 129c0-6.8-4.5-9-8.5-9s-9.53 1.534-9.5 9c.031 7.61 6.833 9.167 10 9 2.667-.167 8-2.2 8-9zM228 160.5l-41 1.5c-1-1.5 3-19.5 20-19.5 13.6 0 19.667 12 21 18z"/>
</svg>
